<svg xmlns="http://www.w3.org/2000/svg" viewBox="0 0 487.81 487.81"><defs><style>.cls-1{fill:none;}.cls-2{fill:gold;}.cls-3{fill:#fff;}.cls-4{fill:#e5b900;}</style></defs><g id="Layer_3" data-name="Layer 3"><path class="cls-1" d="M298.86,237.92c0,1.12.05,2.25.05,3.39,0,2.89-.1,5.74-.27,8.53a250.49,250.49,0,0,1,24.9,6.83V231.15A251.54,251.54,0,0,1,298.86,237.92Z"/><path class="cls-1" d="M237.92,243.83A253.33,253.33,0,0,1,166.78,232v23.89A253.62,253.62,0,0,1,237.91,244S237.92,243.88,237.92,243.83Z"/><path class="cls-2" d="M181.83,284.81h-5.38v58.06h.21v-58Z"/><path class="cls-3" d="M186,284.81h1.34c-1.69,0-3.53,0-5.48,0Z"/><path class="cls-2" d="M243.91,243.91q-3,0-6-.08s0,.1,0,.15C239.91,243.94,241.9,243.91,243.91,243.91Z"/><path class="cls-4" d="M298.86,237.92a254.47,254.47,0,0,1-55,6,255,255,0,0,1,54.73,5.93c.17-2.79.27-5.64.27-8.53C298.91,240.17,298.89,239,298.86,237.92Z"/><path class="cls-2" d="M237.91,244q-1.54,40.28-50.6,40.82h-5.48l-5.17.06v58h36q33.75-4.74,57-27.44a94.15,94.15,0,0,0,21.33-31.33,106.4,106.4,0,0,0,7.7-34.26,255,255,0,0,0-54.73-5.93C241.9,243.91,239.91,243.94,237.91,244Z"/><path class="cls-4" d="M166.78,232a252.44,252.44,0,0,1-59.48-27.91v79.71a253.23,253.23,0,0,1,59.48-27.91Z"/><path class="cls-2" d="M166.78,342.87v-87a253.23,253.23,0,0,0-59.48,27.91v59.11Z"/><path class="cls-2" d="M166.78,200.44h20.07q51.12,0,51.12,40.87c0,.85,0,1.69-.05,2.52q3,.07,6,.08a254.47,254.47,0,0,0,55-6q-1.19-45.06-34.23-71.76Q235.77,143,184.79,143H107.3v61A252.44,252.44,0,0,0,166.78,232Z"/><path class="cls-4" d="M323.54,256.67a252.44,252.44,0,0,1,58.72,28.24,96.94,96.94,0,0,0,.75-12.13V202.41a252.79,252.79,0,0,1-59.47,28.74Z"/><path class="cls-2" d="M323.54,265q0,13.65-6.11,17.44a10.62,10.62,0,0,1-5.61,1.46l-8.3.07a102.29,102.29,0,0,1-71.72,58.88H325a56.58,56.58,0,0,0,21.57-5.1,57.51,57.51,0,0,0,19.12-14.67q13.71-15.75,16.53-38.19a252.44,252.44,0,0,0-58.72-28.24Z"/><path class="cls-2" d="M323.54,143v88.13A252.79,252.79,0,0,0,383,202.41V143Z"/><path class="cls-1" d="M243.91,244A253.21,253.21,0,0,0,53.22,330.3v21.75A3.38,3.38,0,0,0,54.91,355L242.22,463.12a3.4,3.4,0,0,0,3.38,0L432.91,355a3.4,3.4,0,0,0,1.69-2.93V330.3A253.23,253.23,0,0,0,243.91,244Z"/><path class="cls-1" d="M243.91,243.91A253.21,253.21,0,0,1,53.22,157.59V330.3a253.79,253.79,0,0,1,381.38,0V157.59A253.23,253.23,0,0,1,243.91,243.91Z"/><path class="cls-4" d="M434.6,157.59V330.3a254.64,254.64,0,0,1,19.69,25.45,22.71,22.71,0,0,0,.31-3.7V135.76a23,23,0,0,0-.3-3.63A254.86,254.86,0,0,1,434.6,157.59Z"/><path class="cls-4" d="M53.22,157.59a252.48,252.48,0,0,1-19.71-25.47,23.21,23.21,0,0,0-.29,3.64V352.05a23.88,23.88,0,0,0,.3,3.7,254.74,254.74,0,0,1,19.7-25.45Z"/><path class="cls-2" d="M53.22,135.76a3.39,3.39,0,0,1,1.69-2.93L242.22,24.69a3.4,3.4,0,0,1,3.38,0L432.91,132.83a3.41,3.41,0,0,1,1.69,2.93v21.83a254.86,254.86,0,0,0,19.7-25.46,23.5,23.5,0,0,0-11.39-16.62L255.6,7.37a23.46,23.46,0,0,0-23.38,0L44.91,115.51a23.48,23.48,0,0,0-11.4,16.61,252.48,252.48,0,0,0,19.71,25.47Z"/><path class="cls-2" d="M434.6,352.05a3.4,3.4,0,0,1-1.69,2.93L245.6,463.12a3.4,3.4,0,0,1-3.38,0L54.91,355a3.38,3.38,0,0,1-1.69-2.93V330.3a254.74,254.74,0,0,0-19.7,25.45A23.47,23.47,0,0,0,44.91,372.3L232.22,480.44a23.4,23.4,0,0,0,23.38,0L442.91,372.3a23.45,23.45,0,0,0,11.38-16.55A254.64,254.64,0,0,0,434.6,330.3Z"/></g></svg>